<?xml version="1.0" encoding="utf-8"?>
<!-- Generator: Adobe Adobe Illustrator 29.1.0, SVG Export Plug-In . SVG Version: 6.00 Build 0)  -->
<svg version="1.1" id="Layer_1" xmlns="http://www.w3.org/2000/svg" xmlns:xlink="http://www.w3.org/1999/xlink" x="0px" y="0px"
	 width="460.3px" height="460.91px" viewBox="0 0 460.3 460.91" style="enable-background:new 0 0 460.3 460.91;"
	 xml:space="preserve">
<style type="text/css">
	.st0{fill:#3A9D4C;}
</style>
<path class="st0" d="M3.58,138.9v-1c0-75.11,60.89-136,136-136h1c6.08,0,11,4.92,11,11v126c0,6.08-4.92,11-11,11h-126
	C8.51,149.9,3.58,144.98,3.58,138.9z"/>
<path class="st0" d="M459.19,137.58v1c0,6.07-4.93,11-11,11h-126c-6.08,0-11-4.93-11-11v-126c0-6.08,4.92-11,11-11h1
	C398.3,1.58,459.19,62.46,459.19,137.58z"/>
<path class="st0" d="M140.58,304.24h-1c-75.11,0-136-60.89-136-136v-1c0-6.08,4.92-11,11-11h126c6.08,0,11,4.92,11,11v126
	C151.58,299.32,146.66,304.24,140.58,304.24z"/>
<path class="st0" d="M322.18,155.91h1c75.11,0,136,60.89,136,136v1c0,6.08-4.92,11-11,11h-126c-6.08,0-11-4.92-11-11v-126
	C311.18,160.83,316.11,155.91,322.18,155.91z"/>
<path class="st0" d="M140.58,459.24h-1c-75.11,0-136-60.89-136-136v-1c0-6.08,4.92-11,11-11h126c6.08,0,11,4.92,11,11v126
	C151.58,454.32,146.66,459.24,140.58,459.24z"/>
<path class="st0" d="M459.18,321.91v1c0,75.11-60.89,136-136,136h-1c-6.08,0-11-4.92-11-11l0-126c0-6.08,4.92-11,11-11l126,0
	C454.26,310.91,459.18,315.83,459.18,321.91z"/>
<path class="st0" d="M286.58,459.24h-110c-10.49,0-19-8.51-19-19v-110c0-10.49,8.51-19,19-19h110c10.49,0,19,8.51,19,19v110
	C305.58,450.73,297.08,459.24,286.58,459.24z"/>
<path class="st0" d="M286.58,304.24h-110c-10.49,0-19-8.51-19-19v-110c0-10.49,8.51-19,19-19h110c10.49,0,19,8.51,19,19v110
	C305.58,295.73,297.08,304.24,286.58,304.24z"/>
<path class="st0" d="M286.58,149.57h-110c-10.49,0-19-8.51-19-19v-110c0-10.49,8.51-19,19-19h110c10.49,0,19,8.51,19,19v110
	C305.58,141.06,297.08,149.57,286.58,149.57z"/>
</svg>
